<?xml version="1.0" encoding="UTF-8"?>
<svg id="Layer_1" data-name="Layer 1" xmlns="http://www.w3.org/2000/svg" viewBox="0 0 818.03 195.98">
  <defs>
    <style>
      .cls-1 {
        fill: #8b91ac;
        stroke-width: 0px;
      }
    </style>
  </defs>
  <path class="cls-1" d="M60.31,144.01h6.69v-13.57h-26.5v27.41h37.36v-43.31H27.05v54.55h66.45v-66.58H26.53c-3.88,0-13.57,5.04-13.57,15v49.25c0,3.49,1.16,16.16,14.22,16.16h66.96c4.01,0,13.44-3.23,13.44-15.25v-64.51c0-6.2-4.14-14.61-13.7-14.61H25.76c-8.14,0-25.6,5.69-25.6,25.85v61.15c0,7.5,4.01,20.43,20.04,20.43h81.96c6.46,0,18.36-4.14,18.36-20.81v-80.28c0-7.5-4.52-19.52-22.49-19.52H20.85c-5.69,0-10.99-1.81-13.31-7.76-2.33-5.95.39-10.6,4.52-14.48,4.14-3.88,48.87-43.69,48.87-43.69,0,0,47.31,40.07,49.64,42.14,2.33,2.07,4.39,4.14,2.84,6.98-1.55,2.84-3.88,2.84-7.76,2.84H30.41c-2.84,0-3.88-.65-4.27-2.46-.39-1.81,1.16-3.75,4.01-5.82,2.84-2.07,31.41-26.5,31.41-26.5l24.04,19.78h-27.92l5.95-5.3-4.65-5.3-13.06,11.12,1.81,5.82h47.31l2.46-5.82-35.94-29.47S26.79,47.18,23.04,50.29c-3.75,3.1-4.52,8.4-2.97,12.02,1.55,3.62,4.52,5.69,10.21,5.69h78.99c5.04,0,9.31-2.46,11.12-7.63,1.81-5.17-.52-9.95-3.36-12.54C114.18,45.25,61.05,0,61.05,0c0,0-50.8,45.5-54.55,48.87C2.75,52.23-.35,57.53.03,65.02c.39,7.5,5.04,11.51,7.63,13.57,2.59,2.07,7.37,3.49,12.93,3.49h79.76c3.49,0,13.32,2.33,13.32,12.67v80.54c0,5.82-2.33,13.57-13.7,13.57H21.62c-4.52,0-14.87-.26-14.87-14.48v-60.24c0-5.95,6.72-19,20.17-19h65.41c4.4,0,8.4,2.07,8.4,10.47v60.11c0,4.52-1.16,10.08-9.18,10.08H28.73c-4.78,0-8.53-1.16-8.53-10.08v-46.54c0-5.3,3.23-9.82,8.79-9.82h57.79v51.84h-52.48v-39.43h36.33v29.09h-23.01v-13.44h12.67l.03,6.59Z"/>
  <g>
    <path class="cls-1" d="M186.02,74.13h-.37l-20.24-30.32v46.22h-11.28V25.32h12.11l19.69,30.6,19.69-30.6h12.11v64.71h-11.28v-46.41l-20.43,30.51Z"/>
    <path class="cls-1" d="M296.67,70.53c-1.66,4.07-4.01,7.63-7.03,10.68-3.02,3.05-6.6,5.47-10.72,7.26-4.13,1.79-8.69,2.68-13.68,2.68s-9.55-.88-13.68-2.63c-4.13-1.76-7.67-4.14-10.63-7.16-2.96-3.02-5.27-6.56-6.93-10.63-1.66-4.07-2.5-8.38-2.5-12.94s.83-8.87,2.5-12.94c1.66-4.07,4-7.63,7.03-10.68,3.02-3.05,6.59-5.47,10.72-7.26,4.13-1.79,8.69-2.68,13.68-2.68s9.55.88,13.68,2.63c4.13,1.76,7.67,4.15,10.63,7.16,2.96,3.02,5.27,6.56,6.93,10.63,1.66,4.07,2.5,8.38,2.5,12.94s-.83,8.87-2.5,12.94ZM285.62,48.85c-1.08-2.8-2.59-5.25-4.53-7.35-1.94-2.09-4.27-3.76-6.98-4.99-2.71-1.23-5.67-1.85-8.87-1.85s-6.15.6-8.83,1.8c-2.68,1.2-4.98,2.84-6.89,4.9-1.91,2.07-3.41,4.5-4.48,7.3-1.08,2.81-1.62,5.78-1.62,8.92s.54,6.12,1.62,8.92c1.08,2.81,2.59,5.25,4.53,7.35,1.94,2.1,4.27,3.76,6.98,4.99,2.71,1.23,5.67,1.85,8.87,1.85s6.15-.6,8.83-1.8c2.68-1.2,4.98-2.83,6.89-4.9,1.91-2.06,3.4-4.5,4.48-7.3,1.08-2.8,1.62-5.78,1.62-8.92s-.54-6.12-1.62-8.92Z"/>
    <path class="cls-1" d="M357.41,29.77c3.81,2.96,5.72,7.01,5.72,12.13,0,1.98-.26,3.74-.78,5.28-.52,1.54-1.19,2.89-2.02,4.03-.83,1.14-1.8,2.15-2.93,3.01-1.13.86-2.28,1.61-3.44,2.22,1.9.68,3.63,1.46,5.19,2.35,1.56.89,2.91,1.95,4.04,3.18,1.13,1.23,2.01,2.69,2.62,4.38s.92,3.65.92,5.86c0,2.89-.57,5.45-1.71,7.66-1.14,2.22-2.75,4.08-4.84,5.58-2.09,1.51-4.61,2.65-7.57,3.41-2.95.77-6.22,1.15-9.78,1.15h-29.9V25.32h28.97c6.52,0,11.69,1.48,15.5,4.45ZM348.54,50.5c2.21-1.46,3.32-3.7,3.32-6.74,0-2.66-.97-4.72-2.9-6.18-1.94-1.46-4.75-2.18-8.43-2.18h-16.31v17.29h15.48c3.68,0,6.63-.73,8.84-2.18ZM352.14,77.69c2.21-1.51,3.32-3.74,3.32-6.7,0-2.77-1.09-4.93-3.27-6.47-2.18-1.54-5.51-2.31-10-2.31h-17.97v17.75h18.8c3.87,0,6.91-.75,9.13-2.26Z"/>
    <path class="cls-1" d="M391.61,25.32v64.71h-11.28V25.32h11.28Z"/>
    <path class="cls-1" d="M408.98,25.32h11.28v54.45h34.02v10.26h-45.3V25.32Z"/>
    <path class="cls-1" d="M514.09,35.58h-36.61v16.64h32.45v10.26h-32.45v17.29h37.07v10.26h-48.35V25.32h47.88v10.26Z"/>
    <path class="cls-1" d="M603.94,35.58h-36.79v17.84h32.63v10.26h-32.63v26.35h-11.28V25.32h48.07v10.26Z"/>
    <path class="cls-1" d="M670.87,62.02c0,4.81-.66,9.03-1.99,12.66-1.33,3.64-3.19,6.67-5.59,9.11-2.4,2.44-5.32,4.25-8.74,5.45-3.42,1.2-7.26,1.8-11.51,1.8s-7.98-.6-11.37-1.8c-3.39-1.2-6.29-3-8.69-5.41-2.4-2.4-4.25-5.38-5.55-8.92-1.29-3.54-1.94-7.66-1.94-12.34V25.32h11.28v36.79c0,6.04,1.46,10.63,4.37,13.77,2.91,3.14,6.94,4.71,12.08,4.71s9.08-1.51,11.99-4.53c2.91-3.02,4.37-7.52,4.37-13.5V25.32h11.28v36.7Z"/>
    <path class="cls-1" d="M731.6,25.32h11.28v64.71h-9.5l-35.61-46.04v46.04h-11.28V25.32h10.52l34.59,44.74V25.32Z"/>
    <path class="cls-1" d="M815.53,70.39c-1.66,3.97-4.02,7.41-7.07,10.31-3.05,2.9-6.69,5.18-10.91,6.84-4.22,1.66-8.86,2.5-13.91,2.5h-24.13V25.32h24.13c5.05,0,9.69.82,13.91,2.45,4.22,1.63,7.86,3.9,10.91,6.79,3.05,2.9,5.41,6.32,7.07,10.26,1.66,3.94,2.5,8.2,2.5,12.76s-.83,8.83-2.5,12.8ZM804.48,48.91c-1.08-2.69-2.6-5.03-4.54-7.01-1.95-1.98-4.31-3.53-7.09-4.64-2.78-1.11-5.87-1.67-9.27-1.67h-12.79v44.19h12.79c3.4,0,6.49-.54,9.27-1.62,2.78-1.08,5.14-2.6,7.09-4.55,1.95-1.95,3.46-4.27,4.54-6.96,1.08-2.69,1.62-5.65,1.62-8.87s-.54-6.17-1.62-8.86Z"/>
    <path class="cls-1" d="M266.12,139.47c.43.92,1.22,1.79,2.36,2.59,1.14.8,2.72,1.54,4.73,2.22,2.01.68,4.56,1.39,7.65,2.13,3.4.86,6.41,1.82,9.04,2.87,2.63,1.05,4.8,2.33,6.53,3.84,1.73,1.51,3.04,3.27,3.94,5.27.9,2,1.34,4.36,1.34,7.07,0,3.08-.57,5.82-1.7,8.23-1.13,2.4-2.71,4.44-4.72,6.1-2.02,1.66-4.44,2.93-7.27,3.79-2.83.86-5.94,1.29-9.33,1.29-4.99,0-9.77-.85-14.33-2.54-4.56-1.69-8.78-4.3-12.66-7.81l6.84-8.13c3.14,2.71,6.32,4.79,9.52,6.24,3.2,1.45,6.84,2.17,10.91,2.17,3.51,0,6.3-.74,8.37-2.22,2.06-1.48,3.1-3.48,3.1-6.01,0-1.17-.2-2.22-.6-3.14-.4-.92-1.14-1.77-2.22-2.54-1.08-.77-2.57-1.49-4.45-2.17-1.88-.68-4.34-1.39-7.37-2.13-3.46-.8-6.53-1.69-9.22-2.68-2.69-.98-4.94-2.22-6.77-3.7-1.82-1.48-3.21-3.27-4.17-5.36-.96-2.09-1.44-4.65-1.44-7.67,0-2.83.55-5.41,1.65-7.72,1.1-2.31,2.61-4.3,4.54-5.96,1.93-1.66,4.24-2.94,6.95-3.84,2.71-.89,5.66-1.34,8.87-1.34,4.74,0,9.01.69,12.8,2.08,3.79,1.39,7.35,3.41,10.68,6.05l-6.1,8.6c-2.96-2.16-5.89-3.8-8.78-4.95-2.9-1.14-5.82-1.71-8.78-1.71-3.33,0-5.92.76-7.77,2.26-1.85,1.51-2.77,3.34-2.77,5.5,0,1.29.21,2.4.65,3.33Z"/>
    <path class="cls-1" d="M362.99,129.48h-36.61v16.64h32.45v10.26h-32.45v17.29h37.07v10.26h-48.35v-64.71h47.88v10.26Z"/>
    <path class="cls-1" d="M418.55,183.93l-15.95-22.56h-14.28v22.56h-11.28v-64.71h28.84c3.7,0,7.04.48,10.03,1.43,2.99.96,5.51,2.31,7.58,4.07,2.06,1.76,3.65,3.91,4.76,6.47,1.11,2.56,1.66,5.41,1.66,8.55,0,2.71-.39,5.13-1.16,7.26-.77,2.13-1.83,4.01-3.19,5.64-1.36,1.63-2.97,3.02-4.85,4.16-1.88,1.14-3.96,2.02-6.24,2.63l17.47,24.5h-13.4ZM414.84,132.22c-2.35-1.83-5.66-2.74-9.92-2.74h-16.6v21.82h16.69c4.08,0,7.32-.99,9.74-2.97,2.41-1.98,3.62-4.64,3.62-7.98,0-3.59-1.18-6.3-3.52-8.12Z"/>
    <path class="cls-1" d="M487.97,119.22h12.29l-26.9,65.17h-9.98l-26.9-65.17h12.57l19.5,49.73,19.41-49.73Z"/>
    <path class="cls-1" d="M523.29,119.22v64.71h-11.28v-64.71h11.28Z"/>
    <path class="cls-1" d="M591.74,178.34c-1.82,1.39-3.78,2.59-5.87,3.61-2.1,1.02-4.39,1.79-6.89,2.31-2.5.52-5.25.79-8.27.79-4.75,0-9.12-.86-13.13-2.59-4.01-1.72-7.47-4.08-10.4-7.07-2.93-2.99-5.22-6.52-6.89-10.58-1.66-4.07-2.5-8.44-2.5-13.13s.82-8.97,2.45-13.03c1.63-4.07,3.93-7.63,6.89-10.68,2.96-3.05,6.47-5.45,10.54-7.21,4.07-1.76,8.57-2.63,13.5-2.63,2.96,0,5.65.25,8.09.74,2.43.49,4.67,1.19,6.7,2.08,2.03.89,3.91,1.96,5.64,3.19,1.72,1.23,3.36,2.59,4.9,4.07l-7.3,8.41c-2.59-2.4-5.33-4.34-8.23-5.82-2.9-1.48-6.19-2.22-9.89-2.22-3.08,0-5.93.6-8.55,1.8-2.62,1.2-4.88,2.84-6.79,4.9-1.91,2.07-3.39,4.48-4.44,7.26-1.05,2.77-1.57,5.76-1.57,8.97s.52,6.21,1.57,9.01c1.05,2.81,2.53,5.25,4.44,7.35,1.91,2.1,4.17,3.74,6.79,4.95,2.62,1.2,5.47,1.8,8.55,1.8,3.94,0,7.33-.75,10.17-2.27,2.83-1.51,5.64-3.56,8.41-6.15l7.3,7.4c-1.66,1.79-3.41,3.37-5.22,4.76Z"/>
    <path class="cls-1" d="M656.77,129.48h-36.61v16.64h32.45v10.26h-32.45v17.29h37.07v10.26h-48.35v-64.71h47.88v10.26Z"/>
    <path class="cls-1" d="M680.99,139.47c.43.92,1.22,1.79,2.36,2.59,1.14.8,2.72,1.54,4.73,2.22,2.01.68,4.56,1.39,7.65,2.13,3.4.86,6.41,1.82,9.04,2.87,2.63,1.05,4.8,2.33,6.53,3.84,1.73,1.51,3.04,3.27,3.94,5.27.9,2,1.34,4.36,1.34,7.07,0,3.08-.57,5.82-1.7,8.23-1.13,2.4-2.71,4.44-4.72,6.1-2.02,1.66-4.44,2.93-7.27,3.79-2.83.86-5.94,1.29-9.33,1.29-4.99,0-9.77-.85-14.33-2.54-4.56-1.69-8.78-4.3-12.66-7.81l6.84-8.13c3.14,2.71,6.32,4.79,9.52,6.24,3.2,1.45,6.84,2.17,10.91,2.17,3.51,0,6.3-.74,8.37-2.22,2.06-1.48,3.1-3.48,3.1-6.01,0-1.17-.2-2.22-.6-3.14-.4-.92-1.14-1.77-2.22-2.54-1.08-.77-2.57-1.49-4.45-2.17-1.89-.68-4.34-1.39-7.37-2.13-3.46-.8-6.53-1.69-9.22-2.68-2.69-.98-4.94-2.22-6.76-3.7-1.82-1.48-3.21-3.27-4.17-5.36-.96-2.09-1.44-4.65-1.44-7.67,0-2.83.55-5.41,1.65-7.72,1.1-2.31,2.61-4.3,4.54-5.96,1.93-1.66,4.24-2.94,6.95-3.84,2.71-.89,5.66-1.34,8.87-1.34,4.75,0,9.01.69,12.8,2.08,3.79,1.39,7.35,3.41,10.68,6.05l-6.1,8.6c-2.96-2.16-5.89-3.8-8.78-4.95-2.9-1.14-5.82-1.71-8.78-1.71-3.33,0-5.92.76-7.77,2.26-1.85,1.51-2.77,3.34-2.77,5.5,0,1.29.22,2.4.65,3.33Z"/>
  </g>
</svg>