<svg width="358" height="248" viewBox="0 0 358 248" fill="none" xmlns="http://www.w3.org/2000/svg">
<path d="M83.0753 51.6546C85.0557 42.9335 92.8983 33.1879 99.3938 27.2475C102.675 24.2466 106.294 21.5676 110.051 19.2004C141.859 -0.843156 194.104 -4.03816 230.084 4.29012C232.824 4.9242 235.509 5.82768 238.194 6.66051C262.488 14.1991 282.068 28.901 295.541 50.6295C306.14 67.7242 311.802 87.9758 315.364 107.657C317.948 121.93 319.859 136.266 324.334 150.121C325.933 155.073 327.75 159.904 330.033 164.581C331.744 168.087 333.729 171.456 335.408 174.977C339.348 183.239 342.531 191.603 344.367 200.607C345.824 207.757 345.985 214.829 346.088 222.097C346.192 229.373 346.11 236.67 345.752 243.938C347.812 243.967 356.514 243.417 357.554 244.646C357.905 245.062 358.104 245.86 357.944 246.377C357.774 246.934 357.266 247.251 356.755 247.444C354.856 248.161 332.451 247.746 328.664 247.746L28.9033 247.899C21.1245 247.902 9.10431 248.27 1.08494 247.581C-0.0940465 247.48 -1.1416 243.91 2.66546 243.95C7.92242 244.005 13.2606 243.977 18.5443 243.977L39.671 244.045C42.1824 244.06 46.3803 243.727 48.6893 244.056C44.7016 241.068 42.7592 239.092 39.1382 235.824C45.8595 234.14 54.2445 232.247 60.3933 236.56C61.7457 237.509 64.0849 239.979 65.4324 240.451C64.5574 236.535 61.8756 230.513 60.3876 226.654C60.0092 225.879 58.8013 223.26 58.2688 222.824C57.3693 220.181 52.9365 213.484 51.3984 211.174C50.4578 209.775 49.6633 208.652 48.4596 207.436C46.6252 205.248 44.3978 202.503 42.4366 200.499C28.623 202.978 25.1051 194.354 22.0198 182.899C30.7691 182.421 41.3032 181.62 43.5519 192.711C44.1067 195.447 43.876 197.26 43.4805 200.024C44.6761 201.322 49.975 206.946 50.5823 208.04C50.7797 208.625 51.7214 210.103 52.2187 210.398C54.0582 212.823 57.7257 218.831 59.1204 221.448C59.662 212.641 61.0052 210.201 70.1002 208.918C70.0185 206.606 70.2166 199.457 69.7949 197.685C69.5273 196.222 68.5664 191.831 67.937 190.565C67.63 189.478 67.307 188.218 67.0688 187.114C66.006 182.195 64.0782 177.246 62.9977 172.364C62.7517 171.656 62.3232 170.241 61.9328 169.678C59.9939 163.762 57.8301 157.879 55.2853 152.197C55.0634 150.712 54.06 149.699 54.0731 148.426C54.6623 149.323 55.4241 150.348 55.5984 151.408L55.5526 151.83L55.69 152.001C58.6266 158.19 60.3816 164.679 62.9593 170.614L63.1688 170.592C63.8443 169.853 62.8532 160.188 69.9671 156.347L69.9298 129.485C69.9259 127.084 69.7523 116.263 70.1868 114.909C70.4264 113.181 70.1314 106.342 70.1641 104.127C70.3061 94.5759 69.8844 84.6002 70.1818 75.0819C70.4424 73.1643 70.4924 71.9369 70.5329 70.0247C70.469 67.0209 70.3636 63.9829 70.4559 60.9742C70.5421 58.1549 70.8275 55.751 73.0588 53.7392C75.6331 51.418 79.7855 51.453 83.0753 51.6546ZM61.4592 226.366C63.2209 229.459 64.95 235.032 66.3489 238.417C66.7028 237.755 66.7241 237.015 66.826 236.267C67.2807 232.925 67.3815 230.917 70.1034 228.594C70.1002 226.942 70.0697 225.246 70.1698 223.601C66.1192 225.368 64.9244 225.179 61.4592 226.366ZM70.1162 195.386C70.2638 192.514 70.1783 188.8 70.1719 185.891L70.1254 169.921C68.2792 171.253 65.9208 173.281 63.5415 172.774C65.9982 180.036 67.9012 188.013 70.1162 195.386Z" fill="#F1F3F6"/>
<path d="M83.0753 51.6546C85.0557 42.9335 92.8983 33.1879 99.3938 27.2475C102.675 24.2466 106.294 21.5676 110.051 19.2004C141.859 -0.843156 194.104 -4.03816 230.084 4.29012C232.824 4.9242 235.509 5.82768 238.194 6.66051C262.488 14.1991 282.068 28.901 295.541 50.6295C306.14 67.7242 311.802 87.9758 315.364 107.657C317.948 121.93 319.859 136.266 324.334 150.121C325.933 155.073 327.75 159.904 330.033 164.581C331.744 168.087 333.729 171.456 335.408 174.977C339.348 183.239 342.531 191.603 344.367 200.607C345.824 207.757 345.985 214.829 346.088 222.097C346.192 229.373 346.11 236.67 345.752 243.938C344.957 244.108 341.495 244.04 340.525 244.04L328.957 243.981C322.669 243.928 316.322 244.14 310.104 244.064C310.445 243.724 310.849 243.265 311.184 242.904L311.297 235.18C311.345 233.654 311.301 232.184 311.263 230.661C310.967 228.725 311.259 222.78 311.347 220.714C311.392 218.061 311.351 215.321 311.343 212.662C311.174 210.422 311.235 208.548 311.359 206.334L311.196 205.322L311.081 204.446L310.998 204.408C310.675 206.205 310.781 208.764 310.588 210.781C309.812 208.955 307.509 204.018 305.241 204.317C305.317 202.335 305.362 200.186 305.158 198.217C305.697 197.318 306.122 196.627 306.225 195.544C306.662 190.998 306.608 186.325 306.476 181.765C306.374 181.652 306.272 181.54 306.17 181.428L306.135 181.333C301.356 181.159 296.392 181.376 291.563 181.238L291.209 181.157C290.304 181.392 287.962 181.306 287.013 181.178L286.833 181.166C286.933 172.645 286.642 163.697 286.98 155.223C286.924 145.328 287.269 135.089 286.86 125.245C287.026 108.517 286.985 91.1519 286.845 74.399L286.514 74.2769C284.939 71.9315 283.476 70.5292 280.543 70.5103C276.623 70.4853 272.698 70.4528 268.778 70.4172L236.871 70.3255L87.4961 70.3351C83.2262 70.3408 77.3422 69.9319 73.389 71.3046C73.2406 71.4273 72.9311 71.706 72.7781 71.7813C71.6312 72.7818 71.2024 73.2718 70.655 74.7137L70.1818 75.0819C70.4424 73.1643 70.4924 71.9369 70.5329 70.0247C70.469 67.0209 70.3636 63.9829 70.4559 60.9742C70.5421 58.1549 70.8275 55.751 73.0588 53.7392C75.6331 51.418 79.7855 51.453 83.0753 51.6546Z" fill="#F1F3F6"/>
<path d="M70.5329 70.0247C70.469 67.0209 70.3636 63.9829 70.4559 60.9742C70.5421 58.1549 70.8275 55.751 73.0588 53.7392C75.6331 51.418 79.7855 51.453 83.0753 51.6546C85.077 51.8266 87.9525 51.7445 90.0213 51.7406L101.931 51.7196C104.223 51.7174 107.43 51.6239 109.609 51.9936C113.143 52.3487 120.919 52.1353 124.707 52.1339L195.768 52.1328C202.952 52.1324 210.136 52.1299 217.32 52.1071C218.005 52.1049 220.112 51.9066 220.563 51.9629C234.209 51.8231 248.088 51.9708 261.758 51.9658L273.067 51.9208C275.067 51.9101 277.021 51.9636 279.01 51.9754C282.186 51.994 285.929 55.052 286.442 58.232C287.266 63.3367 286.824 69.1497 286.845 74.399L286.514 74.2769C284.939 71.9315 283.476 70.5292 280.543 70.5103C276.623 70.4853 272.698 70.4528 268.778 70.4172L236.871 70.3255L87.4961 70.3351C83.2262 70.3408 77.3422 69.9319 73.389 71.3046C73.2406 71.4273 72.9311 71.706 72.7781 71.7813C71.6312 72.7818 71.2024 73.2718 70.655 74.7137L70.1818 75.0819C70.4424 73.1643 70.4924 71.9369 70.5329 70.0247Z" fill="#7FC5AA"/>
<path d="M220.563 51.9629C234.209 51.8231 248.088 51.9708 261.758 51.9658L273.067 51.9208C275.067 51.9101 277.021 51.9636 279.01 51.9754C282.186 51.994 285.929 55.052 286.442 58.232C287.266 63.3367 286.824 69.1497 286.845 74.399L286.514 74.2769C284.939 71.9315 283.476 70.5292 280.543 70.5103C276.623 70.4853 272.698 70.4528 268.778 70.4172L236.871 70.3255L87.4961 70.3351C83.2262 70.3408 77.3422 69.9319 73.389 71.3046L73.5312 71.0488C74.8854 70.2327 76.4462 70.0011 78.0013 69.9629C82.3084 69.8573 86.6387 69.8748 90.9469 69.8762L243.254 69.847L267.531 69.9387C271.97 69.9569 276.431 69.9251 280.87 70.004C283.297 70.0472 284.726 71.2611 286.282 72.9385C286.377 70.3865 286.262 67.2786 286.437 64.8218C287.471 50.3158 278.564 52.4507 267.684 52.4885L234.588 52.4183C232.378 52.4115 222.027 52.5028 220.49 52.1927L220.563 51.9629Z" fill="#3F856A"/>
<path d="M70.5329 70.0247C70.469 67.0209 70.3636 63.9829 70.4559 60.9742C70.5421 58.1549 70.8275 55.751 73.0588 53.7392C75.6331 51.418 79.7855 51.453 83.0753 51.6546C85.077 51.8266 87.9525 51.7445 90.0213 51.7406L101.931 51.7196C104.223 51.7174 107.43 51.6239 109.609 51.9936C107.629 52.3433 105.422 52.2659 103.405 52.2552C97.2582 52.2256 91.0924 52.2123 84.9465 52.1849C82.1604 52.1724 78.8035 51.7767 76.1306 52.4768C73.7296 53.1058 71.3641 55.6718 71.1582 58.2295C70.9083 61.3353 70.9048 64.4486 70.9037 67.5554C70.8679 68.4721 70.9319 69.2189 70.5329 70.0247Z" fill="#455E93"/>
<path d="M70.9037 67.5554C71.0414 69.3945 71.0228 71.1697 71.0245 73.0106C71.5801 72.4614 72.0302 71.8498 72.7781 71.7813C71.6312 72.7818 71.2024 73.2718 70.655 74.7137L70.1818 75.0819C70.4424 73.1643 70.4924 71.9369 70.5329 70.0247C70.9319 69.2189 70.8679 68.4721 70.9037 67.5554Z" fill="#717FAE"/>
<path d="M83.0827 56.5256C85.1667 56.3797 86.9809 57.9433 87.1559 60.0361C87.3306 62.1289 85.801 63.9747 83.722 64.1802C82.3504 64.3158 81.0125 63.6982 80.2206 62.5645C79.4287 61.4306 79.3055 59.9562 79.8983 58.7051C80.4911 57.4545 81.7079 56.6216 83.0827 56.5256Z" fill="#F0BC79"/>
<path d="M96.2712 56.8561C98.221 56.586 100.027 57.9358 100.332 59.8905C100.636 61.8455 99.3271 63.6857 97.3882 64.0275C96.1018 64.2548 94.7938 63.766 93.9674 62.749C93.1411 61.7324 92.9252 60.3465 93.4027 59.1248C93.8805 57.9026 94.9773 57.0352 96.2712 56.8561Z" fill="#F0BC79"/>
<path d="M108.816 57.0256C110.676 56.5752 112.551 57.7142 113.019 59.5797C113.487 61.4448 112.375 63.3413 110.525 63.8323C109.309 64.1549 108.016 63.7959 107.137 62.8932C106.258 61.9901 105.93 60.6819 106.277 59.468C106.624 58.2537 107.594 57.321 108.816 57.0256Z" fill="#F0A554"/>
<path d="M314.924 199.369C313.353 196.795 313.69 194.188 314.31 191.372C316.423 181.793 328.219 182.462 335.426 183.251C333.672 188.783 331.859 196.168 326.375 199.041C323.408 200.596 318.43 201.144 315.232 200.313C313.869 201.977 312.515 203.622 311.196 205.322L311.081 204.446L311.24 203.656C312.441 202.353 313.759 200.735 314.924 199.369Z" fill="#7FC5AA"/>
<path d="M314.924 199.369C319.595 194.589 322.604 191.774 328.021 187.772L328.13 187.882C327.155 188.949 324.895 190.611 323.733 191.732C320.96 194.407 317.721 197.408 315.232 200.313C313.869 201.977 312.515 203.622 311.196 205.322L311.081 204.446L311.24 203.656C312.441 202.353 313.759 200.735 314.924 199.369Z" fill="#3F856A"/>
<path d="M311.359 206.334C314.839 204.907 317.208 204.541 320.85 206.006C324.142 207.33 327.711 210.707 330.009 213.451C322.902 215.023 317.995 216.097 311.343 212.662C311.174 210.422 311.235 208.548 311.359 206.334Z" fill="#7FC5AA"/>
<path d="M286.98 155.223C290.183 157.295 291.404 160.261 292.22 163.86C292.62 165.628 293.009 169.373 293.745 170.768C293.479 171.784 293.246 172.602 292.913 173.6C292.161 176.312 291.52 178.358 291.209 181.157C290.304 181.392 287.962 181.306 287.013 181.178L286.833 181.166C286.933 172.645 286.642 163.697 286.98 155.223Z" fill="#7FC5AA"/>
<path d="M287.045 169.063C289.209 170.588 290.959 171.817 292.913 173.6C292.161 176.312 291.52 178.358 291.209 181.157C290.304 181.392 287.962 181.306 287.013 181.178C287.1 177.224 286.974 173.099 287.045 169.063Z" fill="#F1F3F6"/>
<path d="M294.752 169.168C295.397 168.917 296.452 168.332 297.323 167.497C299.854 165.073 309.404 159.183 312.103 163.847C313.753 166.697 308.276 171.721 305.406 172.135C301.627 173.243 297.513 172.925 293.721 172.72C293.954 171.459 294.337 170.374 294.752 169.168Z" fill="#7FC5AA"/>
<path d="M306.135 181.333C306.736 181.323 308.017 181.262 308.552 181.369C309.173 181.573 310.463 182.059 310.639 182.684C312.211 188.264 310.802 198.428 311.24 203.656L311.081 204.446L310.998 204.408C310.675 206.205 310.781 208.764 310.588 210.781C309.812 208.955 307.509 204.018 305.241 204.317C305.317 202.335 305.362 200.186 305.158 198.217C305.697 197.318 306.122 196.627 306.225 195.544C306.662 190.998 306.608 186.325 306.476 181.765C306.374 181.652 306.272 181.54 306.17 181.428L306.135 181.333Z" fill="#F0BC79"/>
<path d="M308.552 181.369C309.173 181.573 310.463 182.059 310.639 182.684C312.211 188.264 310.802 198.428 311.24 203.656L311.081 204.446L310.998 204.408C310.427 201.721 310.689 197.463 310.645 194.588C310.59 190.993 310.535 187.398 310.457 183.798C309.882 182.921 309.242 182.369 308.491 181.653L308.552 181.369Z" fill="#F0A554"/>
<path d="M311.347 220.714C317.239 220.687 322.44 223.693 325.777 228.576C322.864 229.469 320.764 230.03 317.675 230.363C316.432 230.496 311.965 230.419 311.263 230.661C310.967 228.725 311.259 222.78 311.347 220.714Z" fill="#7FC5AA"/>
<path d="M300.352 153.669C296.698 150.617 292.374 145.649 293.679 140.284C295.115 135.81 299.174 135.686 300.86 140.2C301.885 142.943 301.219 147.403 302.402 149.425C301.704 150.84 301.015 152.237 300.352 153.669Z" fill="#7FC5AA"/>
<path d="M309.328 137.534C306.089 129.205 312.837 123.419 315.661 129.791C315.216 135.309 313.188 135.144 309.338 137.728L309.328 137.534Z" fill="#7FC5AA"/>
<path d="M311.297 235.18C313.554 235.31 315.813 235.431 318.067 235.592C315.712 238.268 313.776 240.469 311.184 242.904L311.297 235.18Z" fill="#7FC5AA"/>
<path d="M309.328 137.534L309.338 137.728L309.171 138.028C308.239 139.669 307.056 141.23 306.075 143.045C301.804 150.938 297.333 160.591 294.752 169.168C294.337 170.374 293.954 171.459 293.721 172.72C292.684 175.666 292.078 178.154 291.563 181.238L291.209 181.157C291.52 178.358 292.161 176.312 292.913 173.6C293.246 172.602 293.479 171.784 293.745 170.768C295.789 164.717 297.763 159.533 300.352 153.669C301.015 152.237 301.704 150.84 302.402 149.425C303.503 147.198 307.72 138.851 309.328 137.534Z" fill="#717FAE"/>
<path d="M287.013 181.178C287.962 181.306 290.304 181.392 291.209 181.157L291.563 181.238C296.392 181.376 301.356 181.159 306.135 181.333L306.17 181.428C306.272 181.54 306.374 181.652 306.476 181.765C306.608 186.325 306.662 190.998 306.225 195.544C306.122 196.627 305.697 197.318 305.158 198.217C305.362 200.186 305.317 202.335 305.241 204.317C307.509 204.018 309.812 208.955 310.588 210.781C310.781 208.764 310.675 206.205 310.998 204.408L311.081 204.446L311.196 205.322L311.359 206.334C311.235 208.548 311.174 210.422 311.343 212.662C311.351 215.321 311.392 218.061 311.347 220.714C311.259 222.78 310.967 228.725 311.263 230.661C311.301 232.184 311.345 233.654 311.297 235.18L311.184 242.904C310.849 243.265 310.445 243.724 310.104 244.064C316.322 244.14 322.669 243.928 328.957 243.981L340.525 244.04C341.495 244.04 344.957 244.108 345.752 243.938C347.812 243.967 356.514 243.417 357.554 244.646C357.905 245.062 358.104 245.86 357.944 246.377C357.774 246.934 357.266 247.251 356.755 247.444C354.856 248.161 332.451 247.746 328.664 247.746L28.9033 247.899C21.1245 247.902 9.10431 248.27 1.08494 247.581C-0.0940465 247.48 -1.1416 243.91 2.66546 243.95C7.92242 244.005 13.2606 243.977 18.5443 243.977L39.671 244.045C42.1824 244.06 46.3803 243.727 48.6893 244.056C44.7016 241.068 42.7592 239.092 39.1382 235.824C45.8595 234.14 54.2445 232.247 60.3933 236.56C61.7457 237.509 64.0849 239.979 65.4324 240.451C64.5574 236.535 61.8756 230.513 60.3876 226.654C60.0092 225.879 58.8013 223.26 58.2688 222.824C57.3693 220.181 52.9365 213.484 51.3984 211.174C50.4578 209.775 49.6633 208.652 48.4596 207.436C46.6252 205.248 44.3978 202.503 42.4366 200.499C28.623 202.978 25.1051 194.354 22.0198 182.899C30.7691 182.421 41.3032 181.62 43.5519 192.711C44.1067 195.447 43.876 197.26 43.4805 200.024C44.6761 201.322 49.975 206.946 50.5823 208.04C50.7797 208.625 51.7214 210.103 52.2187 210.398C54.0582 212.823 57.7257 218.831 59.1204 221.448C59.4427 222.246 60.9523 225.781 61.4592 226.366C63.2209 229.459 64.95 235.032 66.3489 238.417C66.492 239.602 67.5817 243.117 68.3264 244.027C68.7084 244.055 68.5572 244.106 68.8003 243.964L69.1205 244.023C71.7973 244.293 74.4709 244.06 77.1289 244.101C77.399 243.924 77.497 243.714 77.7036 243.428C80.1482 244.48 85.97 244.114 88.8982 244.112L106.133 244.098L176.773 244.238L198.444 244.256C201.616 244.255 207.321 244.089 210.355 244.383L210.673 244.261C210.935 242.165 210.854 240.143 210.767 238.045C210.63 234.079 211.05 207.124 210.444 205.695C210.925 204.238 210.691 194.871 210.746 192.62L210.674 191.25C210.122 179.889 213.015 181.276 222.693 181.294L270.437 181.288C275.693 181.279 281.274 181.395 286.499 181.265L286.833 181.166L287.013 181.178Z" fill="#F0BC79"/>
<path d="M22.0198 182.899C30.7691 182.421 41.3032 181.62 43.5519 192.711C44.1067 195.447 43.876 197.26 43.4805 200.024C44.6761 201.322 49.975 206.946 50.5823 208.04C50.7797 208.625 51.7214 210.103 52.2187 210.398C54.0582 212.823 57.7257 218.831 59.1204 221.448C59.4427 222.246 60.9523 225.781 61.4592 226.366C63.2209 229.459 64.95 235.032 66.3489 238.417C66.492 239.602 67.5817 243.117 68.3264 244.027C68.7084 244.055 68.5572 244.106 68.8003 243.964L69.1205 244.023C71.7973 244.293 74.4709 244.06 77.1289 244.101C77.399 243.924 77.497 243.714 77.7036 243.428C80.1482 244.48 85.97 244.114 88.8982 244.112L106.133 244.098L176.773 244.238L198.444 244.256C201.616 244.255 207.321 244.089 210.355 244.383L210.673 244.261C211.429 244.605 227.292 244.491 229.637 244.504L275.149 244.542L296.221 244.617C299.518 244.618 306.902 244.636 309.851 244.107L310.104 244.064C316.322 244.14 322.669 243.928 328.957 243.981L340.525 244.04C341.495 244.04 344.957 244.108 345.752 243.938C347.812 243.967 356.514 243.417 357.554 244.646C357.905 245.062 358.104 245.86 357.944 246.377C357.774 246.934 357.266 247.251 356.755 247.444C354.856 248.161 332.451 247.746 328.664 247.746L28.9033 247.899C21.1245 247.902 9.10431 248.27 1.08494 247.581C-0.0940465 247.48 -1.1416 243.91 2.66546 243.95C7.92242 244.005 13.2606 243.977 18.5443 243.977L39.671 244.045C42.1824 244.06 46.3803 243.727 48.6893 244.056C44.7016 241.068 42.7592 239.092 39.1382 235.824C45.8595 234.14 54.2445 232.247 60.3933 236.56C61.7457 237.509 64.0849 239.979 65.4324 240.451C64.5574 236.535 61.8756 230.513 60.3876 226.654C60.0092 225.879 58.8013 223.26 58.2688 222.824C57.3693 220.181 52.9365 213.484 51.3984 211.174C50.4578 209.775 49.6633 208.652 48.4596 207.436C46.6252 205.248 44.3978 202.503 42.4366 200.499C28.623 202.978 25.1051 194.354 22.0198 182.899Z" fill="url(#paint0_linear_4323_3544)"/>
<path d="M22.0198 182.899C30.7691 182.421 41.3032 181.62 43.5519 192.711C44.1067 195.447 43.876 197.26 43.4805 200.024C38.5177 195.55 34.7146 191.128 28.969 187.34C33.2102 191.892 38.2352 195.877 42.4366 200.499C28.623 202.978 25.1051 194.354 22.0198 182.899Z" fill="#7FC5AA"/>
<path d="M39.1382 235.824C45.8595 234.14 54.2445 232.247 60.3933 236.56C61.7457 237.509 64.0849 239.979 65.4324 240.451C65.8793 241.434 66.3247 243.024 66.5736 244.098C57.1893 244.274 55.7524 244.511 46.9514 240.642C48.6882 241.856 51.1609 243.065 53.1026 244.084C51.6923 244.16 50.0925 244.264 48.6893 244.056C44.7016 241.068 42.7592 239.092 39.1382 235.824Z" fill="#7FC5AA"/>
<path d="M287.013 181.178C287.962 181.306 290.304 181.392 291.209 181.157L291.563 181.238C296.392 181.376 301.356 181.159 306.135 181.333L306.17 181.428C306.272 181.54 306.374 181.652 306.476 181.765C306.608 186.325 306.662 190.998 306.225 195.544C306.122 196.627 305.697 197.318 305.158 198.217L304.557 198.716C301.879 200.168 282.331 212.127 281.362 212.104L281.055 211.753L281.298 211.263C281.16 205.374 280.637 202.757 277.617 197.607C276.577 196.188 275.419 194.782 274.239 193.481L273.674 193.044C260.19 181.11 239.292 189.528 236.834 207.189L236.851 208.164L222.53 202.201C217.829 200.265 214.514 199.432 210.795 195.788C210.853 194.501 210.884 193.892 210.746 192.62L210.674 191.25C210.122 179.889 213.015 181.276 222.693 181.294L270.437 181.288C275.693 181.279 281.274 181.395 286.499 181.265L286.833 181.166L287.013 181.178Z" fill="#F0BC79"/>
<path d="M287.013 181.178C287.962 181.306 290.304 181.392 291.209 181.157L291.563 181.238C296.392 181.376 301.356 181.159 306.135 181.333L306.17 181.428C306.272 181.54 306.374 181.652 306.476 181.765C306.608 186.325 306.662 190.998 306.225 195.544C306.122 196.627 305.697 197.318 305.158 198.217L304.557 198.716C301.879 200.168 282.331 212.127 281.362 212.104L281.055 211.753L281.298 211.263C281.16 205.374 280.637 202.757 277.617 197.607C276.577 196.188 275.419 194.782 274.239 193.481L273.674 193.044C277.001 189.627 284.843 185.98 288.755 182.376C284.641 182.172 281.925 182.367 277.966 182.369L256.239 182.37L228.916 182.335C224.105 182.321 218.044 181.775 213.377 182.683C211.246 183.097 210.807 195.485 212.756 196.699C219.879 201.137 229.63 203.235 236.834 207.189L236.851 208.164L222.53 202.201C217.829 200.265 214.514 199.432 210.795 195.788C210.853 194.501 210.884 193.892 210.746 192.62L210.674 191.25C210.122 179.889 213.015 181.276 222.693 181.294L270.437 181.288C275.693 181.279 281.274 181.395 286.499 181.265L286.833 181.166L287.013 181.178Z" fill="url(#paint1_linear_4323_3544)"/>
<path d="M274.239 193.481C276.112 192.122 289.828 182.633 290.76 182.452C293.292 181.962 300.895 182.394 303.879 182.386C298.716 186.779 290.443 190.804 284.424 194.175C282.782 195.095 278.906 196.52 277.617 197.607C276.577 196.188 275.419 194.782 274.239 193.481Z" fill="#F0BC79"/>
<path d="M306.17 181.428C306.272 181.54 306.374 181.652 306.476 181.765C306.608 186.325 306.662 190.998 306.225 195.544C306.122 196.627 305.697 197.318 305.158 198.217L304.557 198.716C301.879 200.168 282.331 212.127 281.362 212.104L281.055 211.753L281.298 211.263C284.71 209.76 288.031 207.435 291.25 205.519C295.018 203.277 298.993 201.17 302.62 198.712C303.505 198.112 304.702 197.327 305.282 196.42C307.006 193.724 304.769 183.089 306.17 181.428Z" fill="#F0A554"/>
<path d="M236.834 207.189C239.292 189.528 260.19 181.11 273.674 193.044L274.239 193.481C275.419 194.782 276.577 196.188 277.617 197.607C280.637 202.757 281.16 205.374 281.298 211.263L281.055 211.753L280.715 212.01C281.317 217.188 277.196 223.658 273.437 227.026C258.025 240.838 235.256 228.74 236.851 208.164L236.834 207.189Z" fill="#F1F3F6"/>
<path d="M257.353 189.925C268.458 189.066 278.157 197.412 279.025 208.574C279.894 219.736 271.604 229.496 260.5 230.383C249.378 231.271 239.648 222.92 238.778 211.738C237.908 200.556 246.228 190.785 257.353 189.925Z" fill="#455E93"/>
<path d="M256.208 190.678C266.915 189.2 276.788 196.722 278.267 207.483C279.746 218.245 272.271 228.176 261.566 229.671C250.85 231.168 240.957 223.643 239.477 212.87C237.997 202.096 245.49 192.157 256.208 190.678Z" fill="#F1F3F6"/>
<path d="M269.424 199.495C269.453 199.613 269.482 199.731 269.512 199.849C266.822 204.331 258.941 217.575 257.111 221.054C255.468 218.823 252.452 212.601 251.1 209.896C250.578 208.846 250.093 207.805 249.6 206.743C251.292 208.523 255.424 214.8 256.834 217.006C257.568 216.135 258.34 215.031 258.984 214.081C262.339 209.125 265.954 204.363 269.424 199.495Z" fill="#F0A554"/>
<path d="M305.241 204.317C307.509 204.018 309.812 208.955 310.588 210.781C310.781 208.764 310.675 206.205 310.998 204.408L311.081 204.446L311.196 205.322L311.359 206.334C311.235 208.548 311.174 210.422 311.343 212.662C311.351 215.321 311.392 218.061 311.347 220.714C311.259 222.78 310.967 228.725 311.263 230.661C311.301 232.184 311.345 233.654 311.297 235.18L311.184 242.904C310.849 243.265 310.445 243.724 310.104 244.064L309.851 244.107C306.902 244.636 299.518 244.618 296.221 244.617L275.149 244.542L229.637 244.504C227.292 244.491 211.429 244.605 210.673 244.261C210.935 242.165 210.854 240.143 210.767 238.045C212.716 238.436 215.817 237.932 217.916 238.02C229.108 238.491 240.326 237.992 251.517 238.013L285.683 238.181C288.503 238.182 302.265 238.688 303.776 237.275C306.061 235.137 304.529 225.164 304.602 221.875C304.626 220.782 304.825 218.601 304.857 217.351C305.343 215.279 305.155 207.084 305.241 204.317Z" fill="#F0A554"/>
<path d="M305.158 198.217C305.362 200.186 305.317 202.335 305.241 204.317C305.155 207.084 305.343 215.279 304.857 217.351C304.319 215.524 304.588 201.727 304.557 198.716L305.158 198.217Z" fill="#3F856A"/>
<path d="M70.1868 114.909C70.5152 115.483 70.496 115.442 70.5666 116.102C70.1872 123.053 70.502 132.539 70.5176 139.671L70.6316 185.265L70.6721 217.955C70.6784 223.317 70.5205 228.758 70.7814 234.101C70.9716 237.999 74.5703 241.539 77.7036 243.428C77.497 243.714 77.399 243.924 77.1289 244.101C74.4709 244.06 71.7973 244.293 69.1205 244.023L68.8003 243.964C68.5572 244.106 68.7084 244.055 68.3264 244.027C67.5817 243.117 66.492 239.602 66.3489 238.417C66.7028 237.755 66.7241 237.015 66.826 236.267C67.2807 232.925 67.3815 230.917 70.1034 228.594C70.1002 226.942 70.0697 225.246 70.1698 223.601C66.1192 225.368 64.9244 225.179 61.4592 226.366C60.9523 225.781 59.4427 222.246 59.1204 221.448C59.662 212.641 61.0052 210.201 70.1002 208.918C70.0185 206.606 70.2166 199.457 69.7949 197.685C69.5273 196.222 68.5664 191.831 67.937 190.565C67.63 189.478 67.307 188.218 67.0688 187.114C66.006 182.195 64.0782 177.246 62.9977 172.364C62.7517 171.656 62.3232 170.241 61.9328 169.678C59.9939 163.762 57.8301 157.879 55.2853 152.197C55.0634 150.712 54.06 149.699 54.0731 148.426C54.6623 149.323 55.4241 150.348 55.5984 151.408L55.5526 151.83L55.69 152.001C58.6266 158.19 60.3816 164.679 62.9593 170.614L63.1688 170.592C63.8443 169.853 62.8532 160.188 69.9671 156.347L69.9298 129.485C69.9259 127.084 69.7523 116.263 70.1868 114.909ZM70.1162 195.386C70.2638 192.514 70.1783 188.8 70.1719 185.891L70.1254 169.921C68.2792 171.253 65.9208 173.281 63.5415 172.774C65.9982 180.036 67.9012 188.013 70.1162 195.386Z" fill="#3F856A"/>
<path d="M70.1002 208.918C70.3444 213.196 70.1715 219.206 70.1698 223.601C66.1192 225.368 64.9244 225.179 61.4592 226.366C60.9523 225.781 59.4427 222.246 59.1204 221.448C59.662 212.641 61.0052 210.201 70.1002 208.918Z" fill="#7FC5AA"/>
<path d="M69.9671 156.347C70.1272 160.694 70.1715 165.558 70.1254 169.921C68.2792 171.253 65.9208 173.281 63.5415 172.774C63.2738 172.048 62.9419 171.369 62.9593 170.614L63.1688 170.592C63.8443 169.853 62.8532 160.188 69.9671 156.347Z" fill="#7FC5AA"/>
<path d="M70.1034 228.594C70.3032 233.196 69.9978 235.981 72.6963 239.934C71.291 241.26 70.0054 242.433 68.8003 243.964C68.5572 244.106 68.7084 244.055 68.3264 244.027C67.5817 243.117 66.492 239.602 66.3489 238.417C66.7028 237.755 66.7241 237.015 66.826 236.267C67.2807 232.925 67.3815 230.917 70.1034 228.594Z" fill="#7FC5AA"/>
<path d="M72.8089 240.309C74.0292 241.33 76.119 242.977 77.1289 244.101C74.4709 244.06 71.7973 244.293 69.1205 244.023C70.3373 242.774 71.5473 241.512 72.8089 240.309Z" fill="#7FC5AA"/>
<path d="M286.86 125.245C287.269 135.089 286.924 145.328 286.98 155.223C286.642 163.697 286.933 172.645 286.833 181.166L286.499 181.265C286.21 172.817 286.441 163.969 286.475 155.48C286.514 145.558 286.358 135.508 286.524 125.606L286.86 125.245Z" fill="#455E93"/>
<path d="M70.655 74.7137L70.678 102.449C70.6808 105.651 70.9109 113.297 70.5666 116.102C70.496 115.442 70.5152 115.483 70.1868 114.909C70.4264 113.181 70.1314 106.342 70.1641 104.127C70.3061 94.5759 69.8844 84.6002 70.1818 75.0819L70.655 74.7137Z" fill="#7FC5AA"/>
<path d="M210.444 205.695C211.05 207.124 210.63 234.079 210.767 238.045C210.854 240.143 210.935 242.165 210.673 244.261L210.355 244.383C210.123 238.422 210.212 232.767 210.324 226.822C210.438 220.767 209.613 211.443 210.444 205.695Z" fill="#3F856A"/>
<path d="M286.845 74.399C286.985 91.1519 287.026 108.517 286.86 125.245L286.524 125.606L286.514 74.2769L286.845 74.399Z" fill="#7FC5AA"/>
<path d="M97.1532 183.701C105.801 182.998 113.389 189.448 114.137 198.137C114.885 206.825 108.512 214.49 99.8736 215.292C91.1645 216.1 83.4642 209.63 82.7103 200.871C81.956 192.112 88.4355 184.409 97.1532 183.701Z" fill="#F0BC79"/>
<path d="M98.0229 190.179C99.1034 191.707 100.268 194.673 101.022 196.471C103.36 196.657 105.561 196.588 107.938 196.846C106.229 198.214 104.267 199.963 102.692 201.468L104.085 208.607C102.252 207.054 100.377 205.874 98.3384 204.643C96.4074 205.557 94.159 207.321 92.4247 208.646L93.742 201.503C91.9316 200.009 90.3183 198.424 88.4143 196.891C90.3822 196.546 93.5922 196.469 95.6009 196.437L98.0229 190.179Z" fill="#F1F3F6"/>
<path d="M224.34 114.254C226.293 114.11 228.059 114.186 229.782 115.168C235.389 118.364 235.12 128.613 229.359 131.527C228.533 131.945 227.737 132.143 226.858 132.365C219.847 132.713 216.382 127.485 217.746 120.996C218.624 116.821 220.459 115.406 224.34 114.254Z" fill="#3F856A"/>
<path d="M224.12 115.647C228.591 115.48 230.867 117.719 231.299 122.279C231.652 125.994 230.664 129.064 227.107 130.769C220.829 132.409 218.906 124.448 220.47 119.851C221.259 117.532 222.079 116.76 224.12 115.647Z" fill="#F1F3F6"/>
<path d="M140.037 114.412C150.014 113.876 146.479 123.106 147.202 129.956L147.235 130.249C148.218 130.547 148.708 130.501 149.135 131.442L148.96 131.85C147.997 132.493 146.767 132.242 145.833 131.643C144.96 131.085 144.905 130.44 144.746 129.482C141.245 132.018 138.35 133.772 135.024 129.841C132.007 123.355 140.628 122.042 144.839 121.23C144.839 117.79 144.527 115.51 140.202 115.724C137.117 115.877 138.709 118.698 137.726 119.987C135.462 120.728 133.294 115.873 140.037 114.412Z" fill="#3F856A"/>
<path d="M143.923 122.636L144.269 122.677C144.718 123.291 144.527 126.932 144.515 127.902C142.98 129.353 142.047 129.966 140.037 130.517C139.333 130.367 138.709 130.19 138.017 129.996C133.456 125.458 140.551 123.333 143.923 122.636Z" fill="#F1F3F6"/>
<path d="M114.873 107.257C116.606 107.238 118.068 107.293 119.788 107.381L119.799 117.368C121.665 115.374 124.252 113.568 127.067 114.708C131.623 116.552 129.805 123.463 130.046 127.285C130.19 129.572 129.503 129.84 131.925 130.822C132.257 131.258 132.169 131.01 132.13 131.615C131.295 132.063 126.476 132.069 125.74 131.528L125.722 131.153L126.063 130.783C127.202 130.526 127.623 130 127.726 128.824C127.974 125.992 127.832 122.86 127.789 120.018C127.157 114.504 122.478 115.271 119.845 119.121C119.756 122.57 119.648 126.956 120.048 130.283C120.794 130.446 121.736 130.586 122.256 131.19L122.19 131.488C120.922 132.195 116.257 132.11 115.183 131.242L115.26 130.96C116.116 130.469 116.544 130.436 117.492 130.262C117.605 123.411 117.615 115.997 117.283 109.157C116.514 108.992 116.026 108.922 115.308 108.592C114.809 107.955 114.961 108.185 114.873 107.257Z" fill="#3F856A"/>
<path d="M171.134 107.102C172.779 107.032 174.471 107.068 176.121 107.08C176.071 111.846 175.9 117.451 176.205 122.158C177.713 120.642 179.73 118.722 181.081 117.028C181.236 116.833 181.59 115.122 181.671 114.747C182.56 114.139 186.563 114.233 187.307 115.21L187.043 115.516C186.243 115.872 185.469 115.814 184.58 115.841C182.494 117.585 180.426 119.883 178.521 121.873C181.557 124.815 183.868 128.593 187.581 130.534C187.781 130.59 188.227 130.858 188.434 130.972L188.468 131.27C187.914 132.274 185.68 132.041 184.663 132.021C181.752 128.852 179.206 125.436 176.133 122.33C176.047 125.162 175.892 127.559 176.367 130.374C177.097 130.581 177.634 130.642 178.022 131.284L177.869 131.589C176.843 132.075 172.1 132.316 171.484 131.36C171.911 130.772 173.095 130.238 173.787 129.877C173.982 124.219 174.073 114.419 173.584 108.9C172.746 108.716 171.921 108.622 171.234 108.141C170.937 107.52 171 107.851 171.134 107.102Z" fill="#3F856A"/>
<path d="M160.992 114.401C169.362 113.974 166.192 124.185 166.694 129.549L166.719 129.802C167.816 130.59 168.424 130.876 169.543 131.821C168.225 131.91 162.913 132.344 162.141 131.457C162.512 130.49 164.573 130.476 164.408 128.763C164.094 125.5 166.058 116.412 161.24 116.101C159.613 115.996 157.977 117.344 156.912 118.439C155.463 120.832 155.906 127.416 156.071 130.318C156.849 130.473 157.51 130.543 158.03 131.148L157.943 131.451C156.327 132.337 152.437 132.046 150.634 131.715C151.642 130.917 152.558 130.541 153.572 129.623C153.788 125.472 153.627 120.941 153.555 116.758C152.824 116.328 151.886 115.992 151.846 115.088C152.539 114.464 154.847 114.658 155.888 114.669C155.88 115.776 155.929 116.942 155.959 118.053C157.631 116.008 158.417 115.167 160.992 114.401Z" fill="#3F856A"/>
<path d="M238.449 114.446C239.518 114.409 240.522 114.506 241.588 114.582C241.511 120.899 239.202 136.857 249.954 127.694L249.941 115.949C249.081 115.944 248.539 115.995 247.713 115.736C247.309 115.329 247.423 115.57 247.377 114.983C248.29 114.135 251.09 114.464 252.437 114.496L252.414 120.545C252.405 123.835 252.389 127.083 252.487 130.374C253.266 130.534 254.144 130.586 254.522 131.34L254.245 131.617C252.594 132.169 251.65 132.054 249.922 132.005L249.945 128.947C246.977 131.943 240.694 135.23 239.254 128.471C238.648 125.623 239.116 119.368 239.119 116.06C238.074 115.982 237.526 116.04 236.759 115.316L236.815 114.988C237.346 114.55 237.765 114.557 238.449 114.446Z" fill="#3F856A"/>
<path d="M197.007 114.439C199.501 114.37 201.23 114.377 203.707 114.656C202.959 115.337 202.285 115.992 201.567 116.701C203.421 121.254 204.874 124.998 206.429 129.684C207.87 125.203 209.782 120.692 211.208 116.123C210.364 115.718 210.09 115.76 209.606 115.09L209.693 114.761C210.857 114.121 213.879 114.402 215.041 115.009L215.075 115.317C214.636 115.812 213.981 116.056 213.373 116.348C212.222 118.591 210.861 122.36 209.916 124.809C208.029 129.432 206.536 134.672 204.153 139.023C203.174 140.811 200.193 142.249 198.374 140.696C198.178 139.481 200.398 139.712 201.184 139.711C203.82 137.383 204.424 134.923 205.441 131.653C202.942 127.335 201.426 121.852 199.277 117.257C198.577 115.762 197.252 116.115 197.007 114.439Z" fill="#3F856A"/>
<path d="M96.4309 107.991L112.626 107.967C112.629 109.043 112.854 111.816 111.708 112.339C110.91 111.852 110.863 110.466 110.734 109.59L105.568 109.572C105.592 112.038 105.365 129.499 105.877 130.196C106.584 130.368 107.779 130.528 108.071 131.23C107.159 132.078 101.515 132.189 100.71 130.993L100.949 130.648C101.552 130.306 102.446 130.297 103.162 130.226C103.381 123.288 103.228 116.484 103.159 109.551C101.945 109.396 101.067 109.401 99.9035 109.41C97.5149 109.429 98.4716 112.612 96.871 112.775L96.5129 112.373C96.1345 110.907 96.3088 109.484 96.4309 107.991Z" fill="#3F856A"/>
<path d="M103.99 157.651C106.803 157.583 110.214 157.715 113.082 157.722L133.135 157.741L242.281 157.736C244.538 157.737 247.117 157.656 249.333 157.901C248.334 158.162 247.471 158.195 246.45 158.271C239.25 158.412 231.36 158.227 224.118 158.217L129.031 158.263C126.253 158.261 102.625 158.478 101.522 157.863C102.324 157.622 103.144 157.666 103.99 157.651Z" fill="#455E93"/>
<path d="M87.1726 233.479C91.3661 233.174 97.5763 233.459 101.936 233.494L127.325 233.559L163.24 233.579C168.965 233.58 176.338 233.367 181.96 233.628L182.016 233.915C178.623 234.153 173.133 233.957 169.569 233.953L108.369 233.92C101.827 233.923 95.2658 233.942 88.7245 233.907C87.9705 233.903 87.6159 233.942 87.1726 233.479Z" fill="#3F856A"/>
<path d="M128.435 166.581C131.21 166.32 136.581 166.505 139.535 166.504L161.112 166.481C181.774 166.474 202.459 166.45 223.121 166.514C223.69 166.516 224.326 166.471 224.779 166.771C221.667 167.221 217.233 166.906 213.992 166.888C209.286 166.862 204.582 166.846 199.876 166.84L142.403 166.901C140.508 166.916 129.625 167.04 128.435 166.581Z" fill="#3F856A"/>
<path d="M54.3246 192.344C51.2169 191.359 48.1518 189.656 46.8419 186.476C46.1526 184.803 47.3669 183.127 49.0047 182.79C52.4557 182.082 58.3074 183.958 61.1425 185.856C63.569 187.481 65.4466 189.039 67.937 190.565C68.5664 191.831 69.5273 196.222 69.7949 197.685C67.7052 196.728 65.2111 195.326 63.0653 194.265C62.2077 201.964 58.2915 206.288 52.2187 210.398C51.7214 210.103 50.7797 208.625 50.5823 208.04C51.0917 206.798 48.2767 201.813 49.6025 198.461C50.3575 196.552 52.4341 193.316 54.3246 192.344Z" fill="#7FC5AA"/>
<path d="M54.3246 192.344C51.2169 191.359 48.1518 189.656 46.8419 186.476C46.1526 184.803 47.3669 183.127 49.0047 182.79C52.4557 182.082 58.3074 183.958 61.1425 185.856C63.569 187.481 65.4466 189.039 67.937 190.565C68.5664 191.831 69.5273 196.222 69.7949 197.685C67.7052 196.728 65.2111 195.326 63.0653 194.265C62.9904 193.16 63.1899 189.911 63.1974 188.596C61.3491 189.126 60.3346 189.497 58.5903 190.221C57.5403 190.657 54.9242 192.241 54.3246 192.344Z" fill="#7FC5AA"/>
<path d="M56.2473 198.566C56.2618 200.159 54.001 205.567 53.3561 207.209C53.2279 205.824 55.6048 200.118 56.2473 198.566Z" fill="#3F856A"/>
<path d="M33.3287 226.938C37.5028 223.939 42.3424 219.795 47.4167 218.87C52.1739 218.002 54.6996 220.33 58.2688 222.824C58.8013 223.26 60.0092 225.879 60.3876 226.654C52.3032 233.356 41.871 231.617 33.3287 226.938Z" fill="#7FC5AA"/>
<path d="M52.525 226.574C53.2349 226.478 54.9374 226.284 55.5884 226.62C54.8898 226.839 54.7514 226.849 54.0127 226.915C51.7643 227.066 45.704 227.726 43.8816 227.03L44.0395 227.144L43.7399 226.882C45.7934 227.043 50.2621 226.7 52.525 226.574Z" fill="#3F856A"/>
<path d="M52.525 226.574C53.2349 226.478 54.9374 226.284 55.5884 226.62C54.8898 226.839 54.7514 226.849 54.0127 226.915L54.1103 226.783C53.8199 226.546 52.9921 226.596 52.525 226.574Z" fill="#717FAE"/>
<path d="M29.3338 212.337C31.2868 210.058 35.7124 206.625 38.5838 205.759C42.6765 204.525 44.9984 205.613 48.4596 207.436C49.6633 208.652 50.4578 209.775 51.3984 211.174C41.7838 215.928 39.4691 215.64 29.3338 212.337Z" fill="#7FC5AA"/>
<path d="M46.4717 211.401L46.629 211.42C45.2396 212.225 40.28 212.195 38.5545 212.108L38.3437 212.061C38.8176 211.79 45.3255 211.473 46.4717 211.401Z" fill="#717FAE"/>
<path d="M62.9977 172.364C58.2432 172.419 53.1185 172.297 48.6985 170.138C46.3578 169.138 42.0077 165.504 43.5746 162.67C45.6156 159.675 50.3363 161.769 52.749 162.818C56.3001 164.361 58.8651 167.971 61.9328 169.678C62.3232 170.241 62.7517 171.656 62.9977 172.364Z" fill="#7FC5AA"/>
<path d="M55.2853 152.197C50.725 153.504 47.5601 153.08 43.369 150.567C40.6372 148.928 38.7019 144.318 42.9083 143.739C46.7852 143.205 51.0469 147.317 53.9619 149.65C53.3425 148.423 52.7032 146.91 52.1278 145.64L52.6709 145.467C53.1473 146.407 53.7178 147.446 54.0731 148.426C54.06 149.699 55.0634 150.712 55.2853 152.197Z" fill="#7FC5AA"/>
<path d="M55.5984 151.408C55.9249 150.929 55.7175 147.866 55.7505 147.041C55.8776 143.37 57.2109 139.044 60.6356 137.204C61.89 136.529 63.6343 136.98 64.0252 138.414C65.7223 144.642 61.1547 149.963 55.69 152.001L55.5526 151.83L55.5984 151.408Z" fill="#7FC5AA"/>
<path d="M45.4879 126.72C51.0662 127.126 49.3293 134.391 48.3081 137.892C47.7178 137.656 47.0795 137.317 46.5049 137.03C43.9874 135.438 40.5577 132.388 42.3716 128.819C42.9918 127.599 44.2164 127.086 45.4879 126.72Z" fill="#7FC5AA"/>
<path d="M52.1278 145.64C51.5212 144.366 49.8912 141.002 49.6168 139.705C50.2228 140.231 52.1938 144.476 52.6709 145.467L52.1278 145.64Z" fill="#7FC5AA"/>
<path d="M162.584 0.6755L162.827 0.809666C163.446 0.735447 163.602 0.743654 164.205 0.76435L164.574 1.26176C163.977 1.27496 162.767 1.40271 162.386 1.14508L162.584 0.6755Z" fill="#080709" fill-opacity="0.0117647"/>
<defs>
<linearGradient id="paint0_linear_4323_3544" x1="178.987" y1="253.4" x2="168.128" y2="14.9228" gradientUnits="userSpaceOnUse">
<stop stop-color="#3D3970"/>
<stop offset="1" stop-color="#27309A"/>
</linearGradient>
<linearGradient id="paint1_linear_4323_3544" x1="134.318" y1="-127.367" x2="385.575" y2="106.048" gradientUnits="userSpaceOnUse">
<stop stop-color="#FDA162"/>
<stop offset="1" stop-color="#EFBA76"/>
</linearGradient>
</defs>
</svg>
