<svg xmlns="http://www.w3.org/2000/svg" version="1.1" xmlns:xlink="http://www.w3.org/1999/xlink" xmlns:svgjs="http://svgjs.com/svgjs" width="1000" height="1000"><rect width="1000" height="1000" rx="350" ry="350" fill="#ffffff"></rect><g transform="matrix(2.8887123564671047,0,0,2.8887123564671047,252.9893094621759,99.99999769444292)"><svg xmlns="http://www.w3.org/2000/svg" version="1.1" xmlns:xlink="http://www.w3.org/1999/xlink" xmlns:svgjs="http://svgjs.com/svgjs" width="171.02" height="276.94"><svg id="Layer_1" data-name="Layer 1" xmlns="http://www.w3.org/2000/svg" viewBox="0 0 171.02 276.94">
  <defs>
    <style>
      .cls-1 {
        fill: #8b91ac;
        stroke-width: 0px;
      }
    </style>
  </defs>
  <path class="cls-1" d="M85.22,203.51h9.45v-19.18h-37.45v38.73h52.79v-61.2H38.23v77.09h93.9v-94.08H37.5c-5.48,0-19.18,7.12-19.18,21.19v69.6c0,4.93,1.64,22.83,20.1,22.83h94.63c5.66,0,19-4.57,19-21.56v-91.16c0-8.77-5.85-20.64-19.36-20.64H36.4C24.89,125.14.23,133.17.23,161.67v86.41c0,10.59,5.66,28.86,28.32,28.86h115.82c9.13,0,25.94-5.85,25.94-29.41v-113.44c0-10.6-6.39-27.59-31.79-27.59H29.46c-8.04,0-15.53-2.56-18.82-10.96-3.29-8.4.55-14.98,6.39-20.46,5.85-5.48,69.05-61.75,69.05-61.75,0,0,66.86,56.63,70.15,59.55,3.29,2.92,6.21,5.85,4.02,9.87-2.19,4.02-5.48,4.02-10.96,4.02H42.98c-4.02,0-5.48-.91-6.03-3.47-.55-2.56,1.64-5.3,5.66-8.22,4.02-2.92,44.39-37.45,44.39-37.45l33.98,27.95h-39.46l8.4-7.49-6.58-7.49-18.45,15.71,2.56,8.22h66.86l3.47-8.22-50.79-41.65s-49.14,42.02-54.44,46.4c-5.3,4.38-6.39,11.87-4.2,16.99,2.19,5.11,6.39,8.04,14.43,8.04h111.62c7.12,0,13.15-3.47,15.71-10.78,2.56-7.31-.73-14.07-4.75-17.72C161.35,63.94,86.27,0,86.27,0c0,0-71.79,64.3-77.09,69.05C3.88,73.8-.5,81.29.05,91.89c.55,10.6,7.12,16.26,10.78,19.18,3.65,2.92,10.41,4.93,18.27,4.93h112.71c4.93,0,18.82,3.29,18.82,17.9v113.81c0,8.22-3.29,19.18-19.36,19.18H30.55c-6.39,0-21.01-.36-21.01-20.46v-85.13c0-8.4,9.5-26.85,28.5-26.85h92.44c6.21,0,11.87,2.92,11.87,14.8v84.95c0,6.39-1.64,14.25-12.97,14.25H40.6c-6.76,0-12.06-1.64-12.06-14.25v-65.76c0-7.49,4.57-13.88,12.42-13.88h81.66v73.25H48.46v-55.72h51.33v41.1h-32.52v-19h17.9l.05,9.32Z"></path>
</svg></svg></g></svg>